<svg xmlns="http://www.w3.org/2000/svg" version="1.1" xmlns:xlink="http://www.w3.org/1999/xlink" xmlns:svgjs="http://svgjs.com/svgjs" width="256" height="256" x="0" y="0" viewBox="0 0 24 24" style="enable-background:new 0 0 512 512" xml:space="preserve"><g><path d="M21,24H18V19a2,2,0,0,0-2-2H8a2,2,0,0,0-2,2v5H3V19a5.006,5.006,0,0,1,5-5h8a5.006,5.006,0,0,1,5,5Z" fill="#e75e8d" data-original="#000000"></path><path d="M12,12a6,6,0,1,1,6-6A6.006,6.006,0,0,1,12,12Zm0-9a3,3,0,1,0,3,3A3,3,0,0,0,12,3Z" fill="#e75e8d" data-original="#000000"></path></g></svg>